<?xml version="1.0" encoding="UTF-8" standalone="no"?>
<svg width="60px" height="60px" viewBox="0 0 60 60" version="1.1" xmlns="http://www.w3.org/2000/svg" xmlns:xlink="http://www.w3.org/1999/xlink" xmlns:sketch="http://www.bohemiancoding.com/sketch/ns">
    <!-- Generator: Sketch 3.2.2 (9983) - http://www.bohemiancoding.com/sketch -->
    <title>KeyboardFI</title>
    <desc>Created with Sketch.</desc>
    <defs></defs>
    <g id="stroked" stroke="none" stroke-width="1" fill="none" fill-rule="evenodd" sketch:type="MSPage">
        <g id="Tech" sketch:type="MSLayerGroup" transform="translate(-838.000000, -609.000000)" stroke="#535353" stroke-width="2" stroke-linecap="round" stroke-linejoin="round">
            <g id="KeyboardFI" transform="translate(840.000000, 613.000000)" sketch:type="MSShapeGroup">
                <rect id="Rectangle-403" x="0" y="22" width="56" height="26" rx="2"></rect>
                <rect id="Rectangle-404" x="4" y="26" width="4" height="4"></rect>
                <rect id="Rectangle-405" x="12" y="26" width="4" height="4"></rect>
                <rect id="Rectangle-410" x="15" y="33" width="4" height="4"></rect>
                <rect id="Rectangle-411" x="7" y="33" width="4" height="4"></rect>
                <rect id="Rectangle-413" x="23" y="33" width="4" height="4"></rect>
                <rect id="Rectangle-412" x="4" y="40" width="4" height="4"></rect>
                <rect id="Rectangle-406" x="20" y="26" width="4" height="4"></rect>
                <rect id="Rectangle-407" x="38" y="26" width="4" height="4"></rect>
                <rect id="Rectangle-414" x="38" y="33" width="4" height="4"></rect>
                <rect id="Rectangle-415" x="46" y="33" width="4" height="4"></rect>
                <rect id="Rectangle-416" x="38" y="40" width="4" height="4"></rect>
                <rect id="Rectangle-417" x="46" y="40" width="4" height="4"></rect>
                <rect id="Rectangle-408" x="46" y="26" width="4" height="4"></rect>
                <rect id="Rectangle-409" x="12" y="40" width="20" height="4"></rect>
                <path d="M33,20 C33,14.4771525 28.5228475,10 23,10" id="Oval-470" transform="translate(28.000000, 15.000000) rotate(-45.000000) translate(-28.000000, -15.000000) "></path>
                <path d="M36,20 C36,11.163444 28.836556,4 20,4" id="Oval-469" transform="translate(28.000000, 12.000000) rotate(-45.000000) translate(-28.000000, -12.000000) "></path>
            </g>
        </g>
    </g>
</svg>