<?xml version="1.0" encoding="iso-8859-1"?>
<!DOCTYPE svg PUBLIC "-//W3C//DTD SVG 1.1//EN" "http://www.w3.org/Graphics/SVG/1.1/DTD/svg11.dtd">
<svg 
 version="1.1" xmlns="http://www.w3.org/2000/svg" xmlns:xlink="http://www.w3.org/1999/xlink" x="0px" y="0px" width="512px"
	 height="512px" viewBox="0 0 512 512" enable-background="new 0 0 512 512" xml:space="preserve"
><g id="e6c6b53d3c8160b22dad35a0f70bab13"><g></g><path d="M511.441,216.377l-9.585-62.367l-62.387-9.606l-9.589-62.368l-62.361-9.581l-9.581-62.357l-62.357-9.582l-7.194,7.196
		l-16.784,16.784l-21.599,21.597L24.499,271.599L0.517,295.581L0.5,295.598l0.058,0.024l9.59,62.37l62.382,9.606l9.59,62.365
		l62.357,9.581l9.585,62.357l62.357,9.581l23.978-23.979l225.509-225.508l21.595-21.596l16.788-16.788l7.194-7.194l0.017-0.017
		L511.441,216.377z M94.171,250.104L250.103,94.171l167.722,167.726L261.901,417.825L94.171,250.104z M330.521,272.729l-51.49,7.481
		L256,326.874l-23.03-46.663l-51.491-7.481l37.261-36.316l-8.795-51.287L256,209.341l46.056-24.215l-8.795,51.287L330.521,272.729z"></path></g></svg>