<?xml version="1.0" encoding="UTF-8" standalone="no"?>
<svg width="60px" height="60px" viewBox="0 0 60 60" version="1.1" xmlns="http://www.w3.org/2000/svg" xmlns:xlink="http://www.w3.org/1999/xlink" xmlns:sketch="http://www.bohemiancoding.com/sketch/ns">
    <!-- Generator: Sketch 3.2.2 (9983) - http://www.bohemiancoding.com/sketch -->
    <title>Womencoat</title>
    <desc>Created with Sketch.</desc>
    <defs></defs>
    <g id="stroked" stroke="none" stroke-width="1" fill="none" fill-rule="evenodd" sketch:type="MSPage">
        <g id="Care" sketch:type="MSLayerGroup" transform="translate(-838.000000, -362.000000)" stroke="#535353" stroke-width="2" stroke-linejoin="round">
            <g id="Womencoat" transform="translate(842.000000, 365.000000)" sketch:type="MSShapeGroup">
                <path d="M14.1546626,5.14638189 C15.3061792,2.38256315 16.6276945,0.0407310562 16.6276945,0.0407310562 L35.1905291,0.0407310562 C35.1905291,0.0407310562 36.4119302,2.18640218 37.5304787,4.78749818 L37.5304787,4.78749818 L46.9290327,12.6531425 L51.7970126,43.3883585 L43.1808264,44.7530284 L38.8943364,17.689196 C37.82979,32.1836532 36.2979405,53.0407311 36.2979405,53.0407311 L15.5202831,53.0407311 L13.0175805,18.9648881 L8.93314032,44.7530284 L0.316954032,43.3883585 L5.18493401,12.6531425 L14.1546626,5.14638189 Z" id="Rectangle-1320" stroke-linecap="round"></path>
                <path d="M19,0 L33,0 L26,13 L19,0 Z" id="Triangle-40" stroke-linecap="round"></path>
                <path d="M15,39 L22,39" id="Line" stroke-linecap="square"></path>
                <path d="M30,39 L37,39" id="Line" stroke-linecap="square"></path>
                <rect id="Rectangle-1333" stroke-linecap="round" x="22" y="35" width="8" height="8"></rect>
            </g>
        </g>
    </g>
</svg>