<?xml version="1.0" encoding="iso-8859-1"?>
<!DOCTYPE svg PUBLIC "-//W3C//DTD SVG 1.1//EN" "http://www.w3.org/Graphics/SVG/1.1/DTD/svg11.dtd">
<svg 
 version="1.1" xmlns="http://www.w3.org/2000/svg" xmlns:xlink="http://www.w3.org/1999/xlink" x="0px" y="0px" width="512px"
	 height="512px" viewBox="0 0 512 512" enable-background="new 0 0 512 512" xml:space="preserve"
><g fill="#ffffff" id="e6c6b53d3c8160b22dad35a0f70b3094"><g fill="#ffffff"></g><path display="inline" d="M304.667,359.845c2.237,3.005,3.355,7.245,3.355,12.721c0,11.776-4.182,17.665-12.541,17.665
		c-8.305,0-12.455-5.654-12.455-16.957c0-11.955,4.271-17.93,12.81-17.93C299.483,355.344,302.43,356.844,304.667,359.845z
		 M229.149,308.353c0-11.48-3.975-17.222-11.925-17.222c-8.597,0-12.896,5.975-12.896,17.931c0,11.302,4.096,16.96,12.279,16.96
		C224.968,326.021,229.149,320.13,229.149,308.353z M379.345,123.845v281.931C370.793,465.549,324.359,511.5,256,511.5
		c-70.259,0-114.792-45.951-123.345-105.725V247.189c0-19.463,15.779-35.241,35.241-35.241H256
		c38.928,0,70.482-35.501,70.482-79.293S294.928,53.362,256,53.362c-36.281,0-66.646,30.84-70.541,70.483
		c-0.62,14.048-12.169,25.256-26.373,25.256c-14.204,0-25.753-11.208-26.373-25.256h-0.059C132.655,55.723,187.878,0.5,256,0.5
		S379.345,55.723,379.345,123.845z M193.777,332.994c5.503,5.713,12.761,8.569,21.771,8.569c9.715,0,17.486-3.06,23.316-9.186
		c5.83-6.122,8.745-14.396,8.745-24.816c0-10.129-2.636-17.989-7.905-23.585c-5.269-5.593-12.585-8.391-21.95-8.391
		c-9.774,0-17.589,3.094-23.447,9.274c-5.861,6.182-8.79,14.544-8.79,25.082C185.517,319.6,188.271,327.288,193.777,332.994z
		 M308.022,277.352h-21.727l-82.318,126.655h21.551L308.022,277.352z M326.482,371.595c0-10.125-2.619-17.958-7.86-23.492
		s-12.571-8.305-21.991-8.305c-9.777,0-17.593,3.091-23.451,9.275c-5.86,6.181-8.789,14.544-8.789,25.082
		c0,9.656,2.753,17.345,8.26,23.051c5.503,5.713,12.761,8.569,21.771,8.569c9.716,0,17.487-3.09,23.317-9.271
		C323.567,390.316,326.482,382.016,326.482,371.595z"></path></g></svg>